<?xml version="1.0" encoding="utf-8"?>
<svg id="master-artboard" viewBox="0 0 573.4974975585938 408.92413330078125" version="1.1" xmlns="http://www.w3.org/2000/svg" x="0px" y="0px" width="573.4974975585938px" height="408.92413330078125px" enable-background="new 0 0 2340 1560"><rect id="ee-background" x="0" y="0" width="573.4974975585938" height="408.92413330078125" style="fill: white; fill-opacity: 0; pointer-events: none;"/>


<linearGradient id="SVGID_1_" gradientUnits="userSpaceOnUse" x1="749.5303" y1="629.771" x2="310.0573" y2="937.596">
<stop offset="0" style="stop-color:#b3b7bd"/>
	<stop offset="1" style="stop-color:#1f2937"/>
</linearGradient>
<path fill="url(#SVGID_1_)" d="M754.425,618.33c-8.02-4.637-18.015-4.169-27.433,1.276L535.051,730.42L343.12,619.605&#10;&#9;c-9.425-5.445-19.435-5.906-27.45-1.276c-8.016,4.632-12.613,13.523-12.613,24.406v274.532c0,10.883,4.597,19.777,12.613,24.406&#10;&#9;c3.661,2.119,7.745,3.173,11.993,3.168c5.046,0,10.336-1.491,15.457-4.44l191.94-110.817l191.932,110.817&#10;&#9;c5.115,2.949,10.401,4.44,15.444,4.44c4.252,0,8.332-1.057,11.989-3.168c8.029-4.629,12.625-13.523,12.625-24.406V642.735&#10;&#9;C767.05,631.853,762.455,622.961,754.425,618.33z M738.423,913.948L563.681,813.056l28.619-16.522l77.438,44.7&#10;&#9;c9.426,5.451,19.432,5.902,27.44,1.279c8.022-4.634,12.622-13.525,12.622-24.405v-76.211c0-10.879-4.6-19.774-12.622-24.406&#10;&#9;c-8.022-4.634-18.015-4.166-27.44,1.276L331.68,913.948V646.055l174.753,100.891l-28.624,16.528l-77.434-44.708&#10;&#9;c-9.437-5.441-19.44-5.902-27.455-1.276c-8.015,4.631-12.613,13.527-12.613,24.406v76.211c0,10.88,4.598,19.771,12.613,24.405&#10;&#9;c8.015,4.635,18.024,4.172,27.455-1.279l338.047-195.179V913.948z M620.934,780.002l60.24-34.787v69.574L620.934,780.002z&#10;&#9; M449.183,780.002l-60.25,34.787v-69.574L449.183,780.002z" transform="matrix(1.180820107460022, 0, 0, 1.180820107460022, -344.5369873046875, -712.3778839111328)"/>
</svg>